<?xml version="1.0" standalone="no"?><!DOCTYPE svg PUBLIC "-//W3C//DTD SVG 1.1//EN" "http://www.w3.org/Graphics/SVG/1.1/DTD/svg11.dtd"><svg t="1534323116010" class="icon" style="" viewBox="0 0 1024 1024" version="1.1" xmlns="http://www.w3.org/2000/svg" p-id="22752" xmlns:xlink="http://www.w3.org/1999/xlink" width="200" height="200"><defs><style type="text/css"></style></defs><path d="M512 0C229.407752 0 0 229.407752 0 512S229.407752 1024 512 1024 1024 794.592248 1024 512 794.592248 0 512 0z m204.8 706.48062c-8.731783 11.113178-21.432558 16.669767-34.927132 16.669768-10.31938 0-19.844961-3.175194-28.576744-10.31938L476.27907 567.565891c-10.31938-8.731783-16.669767-21.432558-16.669768-34.927131V321.488372c0-24.607752 19.844961-45.246512 45.246512-45.246512 24.607752 0 45.246512 19.844961 45.246512 45.246512v189.71783L710.449612 642.976744c19.844961 15.875969 22.226357 44.452713 6.350388 63.503876z" p-id="22753"></path></svg>