<?xml version="1.0" standalone="no"?><!DOCTYPE svg PUBLIC "-//W3C//DTD SVG 1.1//EN" "http://www.w3.org/Graphics/SVG/1.1/DTD/svg11.dtd"><svg t="1531886953102" class="icon" style="" viewBox="0 0 1024 1024" version="1.1" xmlns="http://www.w3.org/2000/svg" p-id="7157" xmlns:xlink="http://www.w3.org/1999/xlink" width="200" height="200"><defs><style type="text/css"></style></defs><path d="M854.918508 86.779661H238.50522A117.152542 117.152542 0 0 0 121.491525 203.793356v703.192949A117.152542 117.152542 0 0 0 238.50522 1024H659.525424a34.711864 34.711864 0 0 0 0-69.423729H238.50522A47.642034 47.642034 0 0 1 190.915254 906.986305V203.793356A47.642034 47.642034 0 0 1 238.50522 156.20339h616.413288A47.642034 47.642034 0 0 1 902.508475 203.793356V694.237288a34.711864 34.711864 0 0 0 69.423728 0V203.793356A117.152542 117.152542 0 0 0 854.918508 86.779661z" fill="#666666" p-id="7158"></path><path d="M295.050847 381.830508h347.118645a34.711864 34.711864 0 0 0 0-69.423728H295.050847a34.711864 34.711864 0 0 0 0 69.423728zM937.220339 815.728814h-104.135593v-104.135594a34.711864 34.711864 0 0 0-69.423729 0v104.135594h-104.135593a34.711864 34.711864 0 0 0 0 69.423728h104.135593v104.135594a34.711864 34.711864 0 0 0 69.423729 0v-104.135594h104.135593a34.711864 34.711864 0 0 0 0-69.423728zM295.050847 590.101695h433.898306a34.711864 34.711864 0 0 0 0-69.423729H295.050847a34.711864 34.711864 0 0 0 0 69.423729z" fill="#666666" p-id="7159"></path></svg>