<?xml version="1.0" standalone="no"?><!DOCTYPE svg PUBLIC "-//W3C//DTD SVG 1.1//EN" "http://www.w3.org/Graphics/SVG/1.1/DTD/svg11.dtd"><svg t="1531728607909" class="icon" style="" viewBox="0 0 1024 1024" version="1.1" xmlns="http://www.w3.org/2000/svg" p-id="8898" xmlns:xlink="http://www.w3.org/1999/xlink" width="200" height="200"><defs><style type="text/css"></style></defs><path d="M512 1023.9c-282.3 0-512-229.6-512-512C0 229.7 229.7 0.1 512 0.1s512 229.6 512 511.8c0 282.4-229.7 512-512 512z m0-936.4c-234 0-424.4 190.4-424.4 424.4S278 936.5 512 936.5c234 0 424.4-190.5 424.4-424.5S746 87.5 512 87.5z" p-id="8899"></path><path d="M512 709.7L297.3 494.8c-17.1-17.1-17.1-44.7 0-61.8 17.1-17.1 44.8-17.1 61.9 0L512 585.8 664.8 433c17.1-17.1 44.8-17.1 61.9 0 17.1 17 17.1 44.7 0 61.8L512 709.7z" p-id="8900"></path></svg>