<?xml version="1.0" standalone="no"?><!DOCTYPE svg PUBLIC "-//W3C//DTD SVG 1.1//EN" "http://www.w3.org/Graphics/SVG/1.1/DTD/svg11.dtd"><svg t="1534314636786" class="icon" style="" viewBox="0 0 1024 1024" version="1.1" xmlns="http://www.w3.org/2000/svg" p-id="10677" xmlns:xlink="http://www.w3.org/1999/xlink" width="200" height="200"><defs><style type="text/css"></style></defs><path d="M739.7 563.5H297.3c-12.8 0-23.2 10.4-23.2 23.2 0 7.1 3.2 13.8 8.8 18.1 1.4 1.7 3 3.3 4.9 4.7l165.3 116c10.5 7.4 24.9 4.8 32.2-5.6 7.3-10.5 4.8-24.9-5.7-32.3L369 609.8h370.7c12.8 0 23.2-10.4 23.2-23.2 0-12.7-10.4-23.1-23.2-23.1M297.3 471h442.4c12.8 0 23.2-10.4 23.2-23.2 0-7.1-3.2-13.8-8.8-18.1-1.4-1.8-3.1-3.4-4.9-4.7L583.9 309c-10.5-7.4-24.9-4.9-32.3 5.6-7.4 10.4-4.9 24.9 5.6 32.3 0 0 0.1 0 0.1 0.1L668 424.7H297.3c-12.8 0-23.2 10.4-23.2 23.2 0.1 12.8 10.4 23.1 23.2 23.1M512 911c220.3 0 399-178.6 399-399S732.3 113 512 113 113 291.7 113 512s178.7 399 399 399z m0 46C266.2 957 67 757.8 67 512S266.2 67 512 67s445 199.2 445 445-199.2 445-445 445z" p-id="10678"></path></svg>