<?xml version="1.0" standalone="no"?><!DOCTYPE svg PUBLIC "-//W3C//DTD SVG 1.1//EN" "http://www.w3.org/Graphics/SVG/1.1/DTD/svg11.dtd"><svg t="1533873681717" class="icon" style="" viewBox="0 0 1024 1024" version="1.1" xmlns="http://www.w3.org/2000/svg" p-id="39024" xmlns:xlink="http://www.w3.org/1999/xlink" width="200" height="200"><defs><style type="text/css"></style></defs><path d="M192.512 192.512l0 65.536 253.952 0L446.464 192.512 192.512 192.512zM512 319.488 192.512 319.488l0 65.536 319.488 0L512 319.488zM704.512 897.024 126.976 897.024 126.976 126.976l577.536 0 0 90.112 126.976-147.456L831.488 0 0 0l0 1024 831.488 0L831.488 602.112l-126.976 147.456L704.512 897.024zM446.464 638.976l-65.536 192.512 192.512-65.536 258.048-290.816 40.96-49.152-126.976-126.976L446.464 638.976zM897.024 126.976l-90.112 102.4 126.976 126.976L1024 253.952 897.024 126.976zM192.512 512l253.952 0 0-65.536L192.512 446.464 192.512 512z" p-id="39025"></path></svg>