<?xml version="1.0" standalone="no"?><!DOCTYPE svg PUBLIC "-//W3C//DTD SVG 1.1//EN" "http://www.w3.org/Graphics/SVG/1.1/DTD/svg11.dtd"><svg t="1534486941824" class="icon" style="" viewBox="0 0 1024 1024" version="1.1" xmlns="http://www.w3.org/2000/svg" p-id="2841" xmlns:xlink="http://www.w3.org/1999/xlink" width="200" height="200"><defs><style type="text/css"></style></defs><path d="M613.43744 879.4624c191.0272-54.24128 306.91328-247.0912 264.73472-440.55552C840.00768 268.9024 686.36672 145.92 512.45056 145.92c-26.90048 0-53.87264 3.39968-80.78336 8.98048A372.80768 372.80768 0 0 0 196.096 318.16704a372.1216 372.1216 0 0 0-50.46272 281.77408c14.5408 65.9456 48.20992 126.38208 96.48128 176.68096l19.0464 20.08064 80.7936-126.38208 47.104 214.7328-215.42912 46.96064 46.01856-71.53664-13.5168-12.31872A444.64128 444.64128 0 0 1 72.76544 615.59808 445.696 445.696 0 0 1 132.7104 278.1184 448.36864 448.36864 0 0 1 414.81216 82.19648a482.38592 482.38592 0 0 1 97.6384-10.06592c208.67072 0 393.78944 147.5584 438.65088 351.1296 25.74336 116.30592 4.5056 237.056-60.5696 337.7152a443.12576 443.12576 0 0 1-261.38624 191.1808l-15.70816-72.69376zM448.53248 412.08832a104.2432 104.2432 0 0 1 73.3184-32.49152 104.26368 104.26368 0 0 1 74.72128 29.15328c20.21376 18.9952 31.41632 44.65664 32.57344 72.63232 0 14.56128-2.2528 30.14656-9.0112 43.6224l133.49888 126.39232a36.352 36.352 0 0 1 1.15712 51.38432c-13.5168 14.56128-37.0688 14.56128-51.61984 1.15712L569.67168 577.536c-13.5168 6.73792-28.0576 10.07616-43.76576 11.1616a104.20224 104.20224 0 0 1-75.18208-29.06112 104.2944 104.2944 0 0 1-32.50176-72.68352c0-29.06112 10.10688-54.784 30.24896-74.87488h0.06144z" p-id="2842"></path></svg>