<?xml version="1.0" standalone="no"?><!DOCTYPE svg PUBLIC "-//W3C//DTD SVG 1.1//EN" "http://www.w3.org/Graphics/SVG/1.1/DTD/svg11.dtd"><svg t="1531728034949" class="icon" style="" viewBox="0 0 1024 1024" version="1.1" xmlns="http://www.w3.org/2000/svg" p-id="5282" xmlns:xlink="http://www.w3.org/1999/xlink" width="200" height="200"><defs><style type="text/css"></style></defs><path d="M544 460.8C492.8 460.8 512 524.8 448 537.6L428.8 544C396.8 550.4 390.4 550.4 390.4 576s12.8 32 25.6 32l76.8 0 0 211.2c0 32 6.4 51.2 38.4 51.2s38.4-25.6 38.4-51.2l0-320C563.2 467.2 550.4 460.8 544 460.8L544 460.8z" p-id="5283"></path><path d="M294.4 249.6l12.8 0c19.2 0 32-12.8 32-32L339.2 64c0-19.2-12.8-32-32-32L294.4 32C275.2 32 262.4 44.8 262.4 64l0 160C262.4 236.8 275.2 249.6 294.4 249.6L294.4 249.6z" p-id="5284"></path><path d="M704 249.6l12.8 0c19.2 0 32-12.8 32-32L748.8 64c0-19.2-12.8-32-32-32L704 32c-19.2 0-32 12.8-32 32l0 160C672 236.8 691.2 249.6 704 249.6L704 249.6z" p-id="5285"></path><path d="M883.2 108.8l-83.2 0 0 57.6 83.2 0c38.4 0 70.4 32 70.4 70.4l0 64-896 0 0-64c0-38.4 32-70.4 70.4-70.4l83.2 0L211.2 108.8 134.4 108.8C57.6 108.8 0 172.8 0 243.2l0 614.4c0 70.4 57.6 134.4 134.4 134.4l755.2 0c70.4 0 134.4-57.6 134.4-134.4L1024 243.2C1017.6 172.8 960 108.8 883.2 108.8L883.2 108.8zM883.2 928 134.4 928C96 928 64 896 64 857.6L64 364.8l896 0 0 492.8C960 896 928 928 883.2 928L883.2 928z" p-id="5286"></path><path d="M384 108.8l256 0 0 57.6L384 166.4 384 108.8 384 108.8z" p-id="5287"></path></svg>