<?xml version="1.0" standalone="no"?><!DOCTYPE svg PUBLIC "-//W3C//DTD SVG 1.1//EN" "http://www.w3.org/Graphics/SVG/1.1/DTD/svg11.dtd"><svg t="1531728111229" class="icon" style="" viewBox="0 0 1024 1024" version="1.1" xmlns="http://www.w3.org/2000/svg" p-id="5961" xmlns:xlink="http://www.w3.org/1999/xlink" width="200" height="200"><defs><style type="text/css"></style></defs><path d="M96 319.847741C96 266.917706 139.079946 224 192.374954 224L831.625043 224C884.882483 224 928 266.939475 928 319.847741L928 735.458758C928 788.388794 884.920058 831.306502 831.625043 831.306502L192.374954 831.306502C139.117518 831.306502 96 788.367027 96 735.458758L96 319.847741 96 319.847741 96 319.847741ZM32 319.847741 32 735.458758C32 823.772666 103.83044 895.306502 192.374954 895.306502L831.625043 895.306502C920.212333 895.306502 992 823.78919 992 735.458758L992 319.847741C992 231.533834 920.169562 160 831.625043 160L192.374954 160C103.787666 160 32 231.517311 32 319.847741L32 319.847741 32 319.847741ZM67.208908 295.239794C69.669126 297.510046 74.247375 301.673669 80.716665 307.461393 91.440585 317.055504 103.59915 327.732755 116.966303 339.224402 155.158814 372.058234 195.444956 404.895837 236.045537 435.601172 264.197206 456.891667 291.543551 476.41508 317.78351 493.792787 402.09002 549.625715 470.331082 580.889559 521.936306 580.428941 572.447229 579.97809 636.936868 550.206188 715.042093 497.583878 742.342771 479.190426 770.829395 458.259332 800.157088 435.258017 839.353165 404.517068 878.102394 371.645634 914.738394 338.778105 927.560973 327.274495 939.211718 316.585554 949.478522 306.979917 955.674893 301.182587 960.05865 297.009571 962.41671 294.730067L917.934848 248.715245C909.260013 257.101085 893.371296 271.966586 872.000051 291.13953 836.34585 323.126244 798.644147 355.109053 760.660986 384.898731 732.478362 407.001981 705.212224 427.036299 679.281933 444.506474 611.048613 490.477724 555.489303 516.126904 521.365077 516.43149 486.700856 516.740896 427.144065 489.455649 353.121413 440.43332 328.068966 423.842058 301.793036 405.082846 274.650334 384.555412 235.213452 354.730157 195.93454 322.713556 158.688248 290.693182 136.360559 271.498226 119.721146 256.611844 110.611405 248.205517L67.208908 295.239794 67.208908 295.239794 67.208908 295.239794Z" p-id="5962"></path></svg>