<?xml version="1.0" standalone="no"?><!DOCTYPE svg PUBLIC "-//W3C//DTD SVG 1.1//EN" "http://www.w3.org/Graphics/SVG/1.1/DTD/svg11.dtd"><svg t="1531728406384" class="icon" style="" viewBox="0 0 1027 1024" version="1.1" xmlns="http://www.w3.org/2000/svg" p-id="8013" xmlns:xlink="http://www.w3.org/1999/xlink" width="200.5859375" height="200"><defs><style type="text/css"></style></defs><path d="M958.511628 76.73385l-2.645995-5.29199c-21.167959-18.521964-42.335917-34.397933-63.503876-44.981912-2.645995 0-5.29199-2.645995-7.937984-2.645995-60.857881-29.105943-132.299742-29.105943-195.803618 0-5.29199 2.645995-13.229974 5.29199-18.521964 10.58398-18.521964 10.583979-37.043928 23.813953-52.919896 39.689922l-211.679587 222.263566c-7.937984 7.937984-13.229974 15.875969-21.167959 23.813954-2.645995 2.645995-5.29199 5.29199-7.937984 10.583979-2.645995 2.645995-5.29199 5.29199-5.29199 10.583979l-7.937984 15.875969c-2.645995 7.937984-7.937984 13.229974-10.58398 21.167959-2.645995 5.29199-5.29199 10.583979-5.291989 15.875969 0 2.645995-2.645995 7.937984-2.645995 10.583979-2.645995 7.937984-5.29199 18.521964-5.29199 26.459949-2.645995 7.937984-2.645995 18.521964-2.645995 26.459948 0 15.875969 0 29.105943 2.645995 44.981912 7.937984 44.981912 29.105943 89.963824 63.503876 127.007752l2.645995 5.29199 13.229974 13.229974 10.583979 10.583979c7.937984 5.29199 15.875969 5.29199 23.813954 5.29199h7.937984c5.29199 0 10.583979-2.645995 15.875969-7.937985l7.937985-7.937984c7.937984-7.937984 10.583979-21.167959 10.583979-31.751938 0-7.937984-2.645995-13.229974-5.291989-21.167959-5.29199-13.229974-18.521964-23.813953-23.813954-31.751938l-2.645995-5.291989c-50.273902-52.919897-31.751938-127.007752 18.521964-179.927649l211.679587-222.263566c2.645995-2.645995 5.29199-5.29199 10.583979-7.937984 5.29199-5.29199 13.229974-10.583979 21.167959-15.875969 37.043928-18.521964 79.379845-21.167959 116.423772-2.645995 13.229974 5.29199 23.813953 15.875969 34.397933 26.459948l2.645995 2.645995v2.645995c50.273902 52.919897 50.273902 137.591731 0 187.865633l-92.609819 97.901809c-5.29199 5.29199-10.583979 10.583979-13.229974 15.875969-5.29199 7.937984-7.937984 18.521964-7.937985 26.459948 0 18.521964 7.937984 34.397933 21.167959 42.335917 7.937984 7.937984 18.521964 10.583979 31.751938 10.58398 10.583979 0 18.521964-2.645995 26.459948-7.937985l2.645995-2.645995c5.29199-2.645995 7.937984-7.937984 10.583979-10.583979l66.149871-63.503876 31.751938-31.751938c7.937984-7.937984 13.229974-15.875969 18.521964-23.813954 5.29199-5.29199 10.583979-13.229974 13.229974-21.167958 0-2.645995 2.645995-2.645995 2.645995-5.29199 2.645995-2.645995 2.645995-5.29199 2.645995-7.937984 5.29199-7.937984 7.937984-18.521964 13.229974-26.459949 37.043928-89.963824 21.167959-193.157623-47.627907-264.599483zM847.379845 529.198966z m-161.405685-44.981912c-5.29199-15.875969-10.583979-34.397933-21.167958-47.627907-10.583979-18.521964-21.167959-34.397933-37.043928-47.627907l-2.645995-5.291989c-7.937984-7.937984-15.875969-15.875969-23.813953-21.167959-2.645995-2.645995-7.937984-7.937984-13.229975-10.583979-5.29199-2.645995-13.229974-5.29199-21.167958-5.29199-26.459948 0-47.627907 21.167959-47.627907 50.273902v7.937984c0 5.29199 2.645995 10.583979 5.291989 15.875969 2.645995 2.645995 2.645995 5.29199 5.29199 7.937985 2.645995 5.29199 7.937984 7.937984 10.583979 10.583979 5.29199 2.645995 7.937984 7.937984 13.229975 13.229974l2.645994 5.29199c7.937984 7.937984 13.229974 15.875969 18.521964 23.813953 2.645995 5.29199 5.29199 10.583979 5.29199 15.875969 2.645995 7.937984 5.29199 18.521964 5.29199 29.105944 2.645995 15.875969 0 31.751938-2.645995 50.273901 0 2.645995 0 5.29199-2.645995 5.29199-2.645995 5.29199-2.645995 10.583979-5.29199 15.875969 0 2.645995-2.645995 5.29199-2.645995 5.29199-2.645995 5.29199-2.645995 7.937984-5.291989 13.229974-2.645995 2.645995-2.645995 5.29199-5.29199 7.937984-2.645995 5.29199-5.29199 10.583979-10.583979 13.229975l-5.29199 5.291989-7.937984 7.937985-211.679587 222.263566c-5.29199 5.29199-10.583979 7.937984-15.875969 13.229974-10.583979 7.937984-23.813953 15.875969-39.689922 21.167958-7.937984 2.645995-15.875969 5.29199-23.813954 5.29199-13.229974 0-23.813953 0-37.043928-2.645995-5.29199 0-7.937984-2.645995-13.229974-2.645995-13.229974-5.29199-26.459948-10.583979-39.689922-21.167958-5.29199-5.29199-10.583979-7.937984-15.875969-13.229974l-5.29199-5.29199c-29.105943-31.751938-42.335917-74.087855-37.043928-113.777778 0-5.29199 2.645995-7.937984 2.645995-13.229974l7.937985-23.813954c5.29199-10.583979 10.583979-18.521964 15.875969-29.105943 2.645995-2.645995 5.29199-7.937984 7.937984-10.583979L241.447028 582.118863c10.583979-7.937984 15.875969-18.521964 18.521964-34.397933v-10.583979c0-5.29199 0-7.937984-2.645995-13.229974 0-2.645995-2.645995-5.29199-2.645994-7.937985-2.645995-5.29199-2.645995-7.937984-5.29199-10.583979 0-2.645995-2.645995-2.645995-2.645995-5.29199-10.583979-10.583979-23.813953-18.521964-39.689922-18.521964-5.29199 0-13.229974 0-18.521964 2.645995-2.645995 2.645995-7.937984 2.645995-10.58398 5.29199l-2.645994 2.645995h-2.645995c-2.645995 0-2.645995 2.645995-2.645995 2.645995l-2.645995 2.645994-97.901809 95.255814C-23.152455 687.958656-23.152455 844.072351 69.457364 941.97416l5.29199 10.58398c92.609819 95.255814 240.78553 95.255814 333.395349 0l211.679586-222.263566c29.105943-31.751938 50.273902-68.795866 63.503876-108.485788 0-2.645995 2.645995-7.937984 2.645995-10.58398 5.29199-21.167959 7.937984-42.335917 7.937985-63.503876V529.198966c-2.645995-15.875969-5.29199-29.105943-7.937985-44.981912z m-82.02584-127.007752z" fill="" p-id="8014"></path></svg>