<?xml version="1.0" standalone="no"?><!DOCTYPE svg PUBLIC "-//W3C//DTD SVG 1.1//EN" "http://www.w3.org/Graphics/SVG/1.1/DTD/svg11.dtd"><svg t="1531732454279" class="icon" style="" viewBox="0 0 1210 1024" version="1.1" xmlns="http://www.w3.org/2000/svg" p-id="2439" xmlns:xlink="http://www.w3.org/1999/xlink" width="236.328125" height="200"><defs><style type="text/css"></style></defs><path d="M1209.390545 976.151273c-22.062545-172.125091-116.829091-318.231273-246.225454-389.818182 56.692364-46.545455 91.461818-116.363636 91.461818-191.441455 0-118.225455-85.271273-220.997818-202.658909-244.363636a40.401455 40.401455 0 0 0-47.383273 33.140364c-4.282182 22.714182 10.100364 44.637091 32.023273 49.012363 79.453091 15.825455 137.122909 84.061091 137.122909 162.210909 0 68.328727-44.683636 130.327273-111.383273 154.624a40.773818 40.773818 0 0 0-37.329454 31.650909c-5.352727 22.434909 7.819636 45.149091 29.509818 50.734546 128.791273 33.233455 231.656727 154.158545 266.286545 307.898182H83.549091c17.501091-166.679273 137.960727-307.618909 299.333818-343.226182a41.518545 41.518545 0 0 0 32.023273-40.820364 41.890909 41.890909 0 0 0-26.484364-39.936c-84.293818-32.116364-140.939636-115.898182-140.939636-208.523636 0-122.786909 96.581818-222.673455 215.319273-222.673455 118.690909 0 215.272727 99.886545 215.272727 222.673455 0 92.066909-56.040727 175.476364-139.543273 207.965091a39.936 39.936 0 0 0-8.564364 4.189091l-0.325818 0.186182a43.752727 43.752727 0 0 0-1.861818 1.303272l-0.372364 0.279273a41.285818 41.285818 0 0 0-11.496727 13.358545 43.008 43.008 0 0 0-0.930909 1.815273l-0.046545 0.046546a42.449455 42.449455 0 0 0-3.584 26.344727l0.093091 0.279273 0.279272 1.442909 0.139637 0.651636 0.325818 1.210182 0.232727 0.837818a40.913455 40.913455 0 0 0 0.325818 1.070546l0.279273 0.930909 0.139636 0.372363 0.279273 0.698182a40.773818 40.773818 0 0 0 3.677091 7.447273l0.232727 0.372363 0.884364 1.349819 0.186182 0.325818 0.930909 1.256727 0.279273 0.372364a40.029091 40.029091 0 0 0 0.930909 1.163636l0.465454 0.465455a40.866909 40.866909 0 0 0 0.837818 0.977454l0.605091 0.651637 0.698182 0.698181 0.930909 0.884364 0.465455 0.465455a39.889455 39.889455 0 0 0 1.210182 1.024l0.186181 0.186181c3.490909 2.792727 7.447273 5.12 11.776 6.702546h0.046546a39.563636 39.563636 0 0 0 3.956363 1.210182l0.977455 0.232727c133.818182 29.463273 242.501818 131.677091 283.834182 266.612364 5.445818 17.826909 21.364364 29.230545 38.539636 29.230545a38.632727 38.632727 0 0 0 12.241455-2.001455c21.271273-6.935273 33.093818-30.487273 26.344727-52.503272-40.401455-132.049455-134.050909-238.173091-253.998545-293.003637a311.156364 311.156364 0 0 0 109.288727-237.102545c0-168.96-132.887273-306.408727-296.168727-306.408727-163.374545 0-296.215273 137.495273-296.215273 306.408727 0 93.463273 41.797818 180.363636 109.800727 237.521454C112.174545 619.985455 0.465455 790.807273 0.465455 981.643636c0 23.133091 18.106182 41.890909 40.494545 41.890909h1098.752c5.213091 0 10.24-1.070545 14.801455-2.932363a39.005091 39.005091 0 0 0 20.014545 2.56c22.202182-3.025455 37.748364-24.110545 34.862545-47.010909z" p-id="2440"></path></svg>