<?xml version="1.0" standalone="no"?><!DOCTYPE svg PUBLIC "-//W3C//DTD SVG 1.1//EN" "http://www.w3.org/Graphics/SVG/1.1/DTD/svg11.dtd"><svg t="1531728187372" class="icon" style="" viewBox="0 0 1024 1024" version="1.1" xmlns="http://www.w3.org/2000/svg" p-id="6635" xmlns:xlink="http://www.w3.org/1999/xlink" width="200" height="200"><defs><style type="text/css"></style></defs><path d="M720.129736 959.855074l-416.260495 0c-61.306274 0-111.005186-50.116421-111.005186-111.964024L192.864054 176.10895c0-61.847603 49.697889-111.964024 111.005186-111.964024l416.260495 0c61.306274 0 111.005186 50.116421 111.005186 111.964024l0 671.7821C831.133899 909.739676 781.43601 959.855074 720.129736 959.855074L720.129736 959.855074zM775.623631 176.10895c0-30.905894-24.848944-55.982012-55.493895-55.982012l-416.260495 0c-30.644951 0-55.502082 25.076118-55.502082 55.982012l0 27.991518 527.256472 0L775.623631 176.10895 775.623631 176.10895zM775.623631 260.081457 248.367159 260.081457 248.367159 707.066721l527.256472 0L775.623631 260.081457 775.623631 260.081457zM775.623631 763.048733 248.367159 763.048733l0 84.842317c0 30.925337 24.857131 55.982012 55.502082 55.982012l416.260495 0c30.644951 0 55.493895-25.056676 55.493895-55.982012L775.623631 763.048733 775.623631 763.048733zM512.001535 875.882568c-22.980387 0-41.614793-18.797112-41.614793-41.98523 0-23.190165 18.634406-41.989323 41.614793-41.989323 22.979364 0 41.612747 18.797112 41.612747 41.989323C553.614282 857.085456 534.980899 875.882568 512.001535 875.882568L512.001535 875.882568z" p-id="6636"></path></svg>