<?xml version="1.0" standalone="no"?><!DOCTYPE svg PUBLIC "-//W3C//DTD SVG 1.1//EN" "http://www.w3.org/Graphics/SVG/1.1/DTD/svg11.dtd"><svg t="1533005240701" class="icon" style="" viewBox="0 0 1024 1024" version="1.1" xmlns="http://www.w3.org/2000/svg" p-id="1545" xmlns:xlink="http://www.w3.org/1999/xlink" width="200" height="200"><defs><style type="text/css"></style></defs><path d="M1022.995 204.154c-1.647 17.641-9.64 32.838-21.92 41.72-16.505 11.921-189.474 126-209.163 138.474-19.402 12.32-48.627 10.386-78.16-5.199-17.181-9.005-70.854-39.55-94.195-52.874-20.354 14.08-72.91 53.53-156.28 136.908C354.234 572.216 320.27 628.55 319.933 629.102c-5.762 9.711-18.297 12.935-28.008 7.194-9.722-5.73-12.976-18.235-7.256-27.967 1.423-2.415 36.103-60.539 149.67-174.095 113.556-113.567 171.7-148.206 174.125-149.618a20.427 20.427 0 0 1 20.517-0.102c0.83 0.47 82.724 47.348 103.815 58.41 19.115 10.08 32.95 9.558 37.197 6.856 18.696-11.84 191.665-125.917 207.107-137.082 4.615-3.336 10.458-20.036-3.203-39.632-8.094-11.574-34.895-46.018-65.993-78.457-50.306-52.465-67.364-52.997-67.58-52.997l-0.593 0.02c-18.143 0.573-66.361 2.088-146.169 39.776-102.78 48.536-219.51 137.737-346.931 265.129-127.412 127.401-216.645 244.099-265.19 346.85-37.699 79.786-39.234 128.035-39.807 146.189l-0.02 0.634c0 0.143 0.47 17.171 53.027 67.528 32.46 31.098 66.874 57.858 78.468 65.952 19.74 13.825 36.194 8.095 39.417 3.48 9.292-13.252 124.557-186.437 137.154-207.026 2.753-4.512 2.804-16.147-3.592-31.026a92.394 92.394 0 0 0-3.05-6.365c-5.28-9.998-1.452-22.38 8.545-27.66 9.998-5.27 22.37-1.443 27.65 8.555 1.617 3.06 3.111 6.19 4.452 9.301 11.235 26.115 11.563 51.094 0.92 68.531-12.832 20.988-127.452 193.334-138.545 209.174-8.862 12.648-24.18 20.814-42.027 22.39a71.535 71.535 0 0 1-6.334 0.277c-12.638 0-29.727-3.255-48.055-16.087-14.807-10.345-50.653-38.589-83.706-70.311C6.504 879.883 0.242 853.677 0.702 838.92l0.02-0.645c0.655-20.476 2.375-74.896 43.716-162.378C95 568.88 186.933 448.335 317.692 317.598S569.036 94.945 676.084 44.394C763.577 3.074 817.965 1.365 838.442 0.72l0.593-0.02c14.797-0.45 40.994 5.782 98.054 65.205 31.722 33.032 59.996 68.889 70.372 83.737 8.31 11.922 17.734 31.037 15.534 54.512z" fill="" p-id="1546"></path></svg>