<?xml version="1.0" standalone="no"?><!DOCTYPE svg PUBLIC "-//W3C//DTD SVG 1.1//EN" "http://www.w3.org/Graphics/SVG/1.1/DTD/svg11.dtd"><svg t="1531727859424" class="icon" style="" viewBox="0 0 1024 1024" version="1.1" xmlns="http://www.w3.org/2000/svg" p-id="3445" xmlns:xlink="http://www.w3.org/1999/xlink" width="200" height="200"><defs><style type="text/css"></style></defs><path d="M242.86094222222226 725.69856h538.9232355555556v55.75111111111111H242.86094222222226z" p-id="3446"></path><path d="M75.41532444444442 75.08195555555557v873.8133333333334h873.8133333333334v-873.8133333333334h-873.8133333333334z m790.1866666666666 790.1866666666666H159.04312888888887V158.70975999999996h706.5588622222223V865.2686222222222z" p-id="3447"></path><path d="M339.88152888888885 521.9384888888889H495.3770666666667l38.11100444444445 102.22023111111112h53.27416888888889l-142.23701333333335-373.46417777777776h-51.61415111111111l-142.23701333333335 373.46417777777776h53.27416888888889l35.933297777777774-102.22023111111112zM411.0142577777778 324.4942222222222c2.2596266666666667-6.124657777777777 4.2461866666666666-14.809315555555555 6.016568888888889-26.051697777777775h1.19808c2.0957866666666667 12.385848888888887 4.028871111111111 21.070506666666667 5.7981155555555555 26.051697777777775l56.43263999999999 155.24977777777775H355.072l55.942257777777776-155.24977777777775zM663.3119288888889 569.7410844444445h118.47224888888888v55.75111111111111H663.3119288888889zM663.3119288888889 409.78204444444447h118.47224888888888v55.75111111111111H663.3119288888889zM663.3119288888889 249.82300444444445h118.47224888888888v55.75111111111111H663.3119288888889z" p-id="3448"></path></svg>