<?xml version="1.0" standalone="no"?><!DOCTYPE svg PUBLIC "-//W3C//DTD SVG 1.1//EN" "http://www.w3.org/Graphics/SVG/1.1/DTD/svg11.dtd"><svg t="1533864436852" class="icon" style="" viewBox="0 0 1028 1024" version="1.1" xmlns="http://www.w3.org/2000/svg" p-id="2940" xmlns:xlink="http://www.w3.org/1999/xlink" width="200.78125" height="200"><defs><style type="text/css"></style></defs><path d="M956.367904 759.254671l-10.194421 0 0-269.522923c0-63.703481-57.840524-83.449762-116.636566-83.449762l-248.761195 0 0-132.374329 10.257679 0c35.527326-11.109988 62.521568-40.188393 70.96143-76.444843L661.99483 20.878255c0-27.260589-45.864908-11.655999-70.96143-11.655999l-202.956215 0c-25.166437 0-10.510708-15.607919-10.510708 11.655999l0 176.458044c0 27.393762-14.908759 76.441514 10.254349 76.441514l71.221118 0 0 132.311072L190.218182 406.088884c-58.796043 0-96.507411 19.556509-96.507411 83.449762l0 269.522923L22.742682 759.06157c-25.479395 0-10.254349-15.607919-10.254349 11.659328l0 176.837588c0 27.327175-14.908759 76.441514 10.254349 76.441514l202.956215 0c35.530655-11.106659 62.524897-40.185064 70.964759-76.441514L296.663656 770.973928c0-27.260589-45.864908-11.655999-70.964759-11.655999l-10.254349 0L215.444547 538.652985l243.597398 0 0 220.601686-70.96143 0c-25.482724 0-10.257679-15.607919-10.257679 11.659328l0 176.647816c0 27.327175-14.908759 76.441514 10.257679 76.441514l202.956215 0c35.527326-11.106659 62.521568-40.185064 70.96143-76.441514L661.99816 770.973928c0-27.260589-45.864908-11.655999-70.96143-11.655999l-10.257679 0L580.779051 538.652985l243.53414 0 0 220.601686-70.901502 0c-25.479395 0-10.254349-15.607919-10.254349 11.659328l0 176.647816c0 27.327175-14.908759 76.441514 10.254349 76.441514l202.956215 0c35.530655-11.106659 62.524897-40.185064 70.96143-76.441514L1027.329334 770.973928c0-27.260589-45.861579-11.655999-70.96143-11.655999M215.444547 935.772643 93.644184 935.772643l0-88.227357 121.800363 0L215.444547 935.772643zM580.775722 935.772643l-121.733777 0 0-88.227357 121.733777 0L580.775722 935.772643zM459.041945 97.449613l121.733777 0 0 88.227357-121.733777 0L459.041945 97.449613zM946.173483 935.772643 824.376449 935.772643l0-88.227357 121.797034 0L946.173483 935.772643z" p-id="2941"></path></svg>