<?xml version="1.0" standalone="no"?><!DOCTYPE svg PUBLIC "-//W3C//DTD SVG 1.1//EN" "http://www.w3.org/Graphics/SVG/1.1/DTD/svg11.dtd"><svg t="1533544388012" class="icon" style="" viewBox="0 0 1024 1024" version="1.1" xmlns="http://www.w3.org/2000/svg" p-id="3578" xmlns:xlink="http://www.w3.org/1999/xlink" width="200" height="200"><defs><style type="text/css"></style></defs><path d="M1008.337 135.652l-995.676 309.55 282.064 230.635c-1.014 2.547-1.533 5.323-1.43 8.203l7.167 216.819c0.394 11.434 9.942 20.382 21.375 20.029 0.166 0 0.31-0.103 0.455-0.124 5.551 0 11.061-2.093 15.121-6.463l108.533-114.811 185.151 151.388 377.238-815.228zM866.621 223.079l-548.759 418.188-219.367-179.35 768.126-238.837zM340.229 850.652l-4.681-141.405 78.211 63.961-73.53 77.444zM350.835 668.235l564.481-430.181-299.36 646.958-265.121-216.779z" p-id="3579"></path></svg>