<?xml version="1.0" standalone="no"?><!DOCTYPE svg PUBLIC "-//W3C//DTD SVG 1.1//EN" "http://www.w3.org/Graphics/SVG/1.1/DTD/svg11.dtd"><svg t="1531729081969" class="icon" style="" viewBox="0 0 1024 1024" version="1.1" xmlns="http://www.w3.org/2000/svg" p-id="1497" xmlns:xlink="http://www.w3.org/1999/xlink" width="200" height="200"><defs><style type="text/css"></style></defs><path d="M485.888 844.8h70.144l-37.376-49.152-32.768 49.152zM299.008 661.504c13.312 0 26.624 7.68 37.376 21.504L423.936 798.72l45.056-67.584-72.192-94.208c-25.088-32.768-60.928-51.712-98.304-51.712S225.28 604.16 200.192 636.928l-121.856 159.744c6.656 27.136 30.72 47.616 59.904 48.64l123.392-161.28c10.752-14.848 24.064-22.528 37.376-22.528z" p-id="1498"></path><path d="M947.2 780.8c0 35.328-28.672 64-64 64h-327.168l58.368 76.8h268.8c63.488 0 117.76-42.496 135.168-100.864L947.2 713.728v67.072zM434.688 921.6h82.944l-44.544-58.368-38.4 58.368z" p-id="1499"></path><path d="M473.6 863.232l44.544 58.368H614.4l-58.368-76.8H485.888l-12.288 18.432zM342.528 921.6l50.688-76.8H138.752l-50.688 66.56c16.384 6.656 34.304 10.24 53.248 10.24h201.216zM76.8 780.8v-537.6C76.8 207.872 105.472 179.2 140.8 179.2h742.4c35.328 0 64 28.672 64 64v331.264l76.8 116.224V243.2c0-77.824-62.976-140.8-140.8-140.8h-742.4C62.976 102.4 0 165.376 0 243.2v537.6c0 31.232 10.24 59.904 27.136 82.944l51.712-67.584c-1.024-5.12-2.048-10.24-2.048-15.36z" p-id="1500"></path><path d="M87.552 911.36l50.688-66.56c-28.672-1.024-52.736-21.504-59.904-48.64l-51.2 67.584c15.36 20.992 36.352 37.376 60.416 47.616zM759.808 374.784c-34.816 0-68.096 19.456-90.624 53.76l-200.192 302.592 49.152 64.512 215.04-324.608c8.192-12.288 17.92-19.456 26.624-19.456s18.432 7.168 26.624 19.456l160.768 242.688v-139.264l-96.768-145.92c-22.528-34.304-55.808-53.76-90.624-53.76z" p-id="1501"></path><path d="M485.888 844.8l32.768-49.152-49.152-64.512-45.568 67.584 35.328 46.08h26.624zM459.264 844.8H393.728L343.04 921.6h92.16l38.4-58.368-14.336-18.432z" p-id="1502"></path><path d="M473.6 863.232l12.288-18.432h-26.112l13.824 18.432zM947.2 713.728l71.168 107.008c3.584-12.8 5.632-26.112 5.632-39.936v-90.112l-76.8-116.224v139.264zM404.992 527.872c-76.8 0-139.264-62.464-139.264-139.264s62.464-139.264 139.264-139.264 139.264 62.464 139.264 139.264-62.464 139.264-139.264 139.264z m0-201.216c-34.304 0-62.464 28.16-62.464 62.464s28.16 62.464 62.464 62.464c34.304 0 62.464-28.16 62.464-62.464s-28.16-62.464-62.464-62.464z" p-id="1503"></path></svg>