<?xml version="1.0" standalone="no"?><!DOCTYPE svg PUBLIC "-//W3C//DTD SVG 1.1//EN" "http://www.w3.org/Graphics/SVG/1.1/DTD/svg11.dtd"><svg t="1534314851818" class="icon" style="" viewBox="0 0 1024 1024" version="1.1" xmlns="http://www.w3.org/2000/svg" p-id="14182" xmlns:xlink="http://www.w3.org/1999/xlink" width="200" height="200"><defs><style type="text/css"></style></defs><path d="M994.918 771.714H747.131c-15.663 0-28.338-12.674-28.338-28.338 0-15.663 12.674-28.338 28.338-28.338h191.112V403.326c0-46.879-38.134-85.013-85.013-85.013H173.129c-46.879 0-85.013 38.134-85.013 85.013v311.713h186.74c15.663 0 28.338 12.674 28.338 28.338 0 15.663-12.674 28.338-28.338 28.338H31.442V403.326c0-78.122 63.566-141.688 141.688-141.688h680.1c78.122 0 141.688 63.566 141.688 141.688v368.388z" p-id="14183"></path><path d="M768.218 958.288H258.142V561.562h510.076v396.726z m-453.401-56.675h396.726V618.238H314.817v283.375zM768.218 318.313H258.142V59.678h510.076v258.635z m-453.401-56.675h396.726V116.353H314.817v145.285zM449.614 435.676H286.479c-15.663 0-28.338-12.674-28.338-28.338S270.815 379 286.479 379h163.135c15.663 0 28.338 12.674 28.338 28.338s-12.675 28.338-28.338 28.338z" p-id="14184"></path></svg>