<?xml version="1.0" standalone="no"?><!DOCTYPE svg PUBLIC "-//W3C//DTD SVG 1.1//EN" "http://www.w3.org/Graphics/SVG/1.1/DTD/svg11.dtd"><svg t="1531907891862" class="icon" style="" viewBox="0 0 1024 1024" version="1.1" xmlns="http://www.w3.org/2000/svg" p-id="7822" xmlns:xlink="http://www.w3.org/1999/xlink" width="200" height="200"><defs><style type="text/css"></style></defs><path d="M468.48 783.067429l77.897143 0 0 82.944-77.897143 0L468.48 783.067429zM665.197714 209.042286c-38.070857-34.011429-87.186286-51.053714-147.126857-51.053714-28.306286 0-55.808 4.534857-82.432 13.677714-26.624 9.069714-50.761143 23.259429-72.338286 42.422857-21.577143 19.236571-36.937143 40.521143-46.006857 63.780571-9.069714 23.259429-14.336 55.442286-15.652571 96.548571l65.755429 0c8.118857-106.569143 57.344-159.817143 147.675429-159.817143 41.874286 0 75.044571 11.483429 99.620571 34.377143 24.612571 22.966857 36.900571 53.321143 36.900571 91.062857 0 24.941714-4.937143 45.714286-14.701714 62.244571-9.728 16.457143-34.011429 44.617143-72.777143 84.406857-38.765714 39.789714-63.926857 73.362286-75.337143 100.644571-11.483429 27.245714-17.846857 60.818286-19.236571 100.608l69.778286 0c0-43.776 4.681143-75.190857 14.189714-94.025143 9.435429-18.907429 35.035429-48.201143 76.909714-87.990857 38.4-35.803429 63.305143-64.073143 74.825143-84.992 11.446857-20.918857 17.188571-45.860571 17.188571-74.825143C722.358857 288.841143 703.341714 243.126857 665.197714 209.042286M512 51.2c254.098286 0 460.8 206.701714 460.8 460.8S766.098286 972.8 512 972.8 51.2 766.098286 51.2 512 257.901714 51.2 512 51.2M512 0C229.229714 0 0 229.229714 0 512c0 282.770286 229.229714 512 512 512 282.770286 0 512-229.229714 512-512C1024 229.229714 794.770286 0 512 0" p-id="7823"></path></svg>