<?xml version="1.0" standalone="no"?><!DOCTYPE svg PUBLIC "-//W3C//DTD SVG 1.1//EN" "http://www.w3.org/Graphics/SVG/1.1/DTD/svg11.dtd"><svg t="1533527546312" class="icon" style="" viewBox="0 0 1024 1024" version="1.1" xmlns="http://www.w3.org/2000/svg" p-id="2203" xmlns:xlink="http://www.w3.org/1999/xlink" width="200" height="200"><defs><style type="text/css"></style></defs><path d="M645.684087 842.003376c0 67.274193-57.255383 119.590726-128.727598 119.590726-71.472216 0-128.727598-52.316533-128.727599-119.590726h257.455197M602.786647 144.108589c0-44.908258-37.182485-79.797706-85.794881-79.797706s-85.794881 34.889448-85.79488 79.797706v12.41768c-117.297688 37.39415-214.522479 156.984876-214.522479 296.613222v109.677748s0 156.984876-42.897441 159.489579c-25.752575 0-42.89744 17.427085-42.89744 39.898853s20.03762 39.898853 42.89744 39.898852h686.464878c22.85982 0 42.89744-17.427085 42.89744-39.898852s-20.03762-39.898853-42.89744-39.898853c-42.89744 0-42.89744-159.489579-42.897441-159.489579v-109.677748c0-139.522514-91.509836-256.714369-214.522479-296.613222v-12.41768" p-id="2204"></path></svg>