<?xml version="1.0" standalone="no"?><!DOCTYPE svg PUBLIC "-//W3C//DTD SVG 1.1//EN" "http://www.w3.org/Graphics/SVG/1.1/DTD/svg11.dtd"><svg t="1531097833757" class="icon" style="" viewBox="0 0 1024 1024" version="1.1" xmlns="http://www.w3.org/2000/svg" p-id="1473" xmlns:xlink="http://www.w3.org/1999/xlink" width="200" height="200"><defs><style type="text/css"></style></defs><path d="M920.070569 166.610144l-40.467747-0.658837c-0.959873 0-91.717719-1.926626-185.386147-39.745262-96.054348-38.819794-158.024617-83.395383-158.594004-83.821993l-24.473311-17.585623-24.284088 17.585623c-0.574547 0.42489-62.536216 45.002199-158.590564 83.821993C234.621762 164.02124 143.846714 165.947866 142.988333 165.947866l-40.66213 0.662278V576.594437c0 205.78602 265.931155 423.434551 408.926369 423.434551 143.076063 0 409.015819-217.648531 409.01582-423.434551l-0.197823-409.984293z m-82.475075 409.986013c0 159.108344-231.626891 341.286314-326.342922 341.286315-94.729792 0-326.348082-182.17797-326.348082-341.286315V245.214765c40.457426-4.362432 106.174295-15.335599 174.480067-42.891512 69.855674-28.271516 123.042593-59.040766 151.854254-77.359194 28.904551 18.314988 81.995138 49.082518 151.943703 77.359194 68.228364 27.561073 133.941792 38.52908 174.407819 42.891512v331.379672l0.005161 0.00172z" p-id="1474"></path><path d="M613.597698 273.500043l-184.455518-0.909987-93.544573 325.546468 127.219244-6.237451-51.981058 225.170973 267.625554-369.922513-150.588185 19.247337z" p-id="1475"></path></svg>