<?xml version="1.0" standalone="no"?><!DOCTYPE svg PUBLIC "-//W3C//DTD SVG 1.1//EN" "http://www.w3.org/Graphics/SVG/1.1/DTD/svg11.dtd"><svg t="1534314762151" class="icon" style="" viewBox="0 0 1024 1024" version="1.1" xmlns="http://www.w3.org/2000/svg" p-id="12604" xmlns:xlink="http://www.w3.org/1999/xlink" width="200" height="200"><defs><style type="text/css"></style></defs><path d="M512 1016.64C233.904 1016.64 7.648 790.368 7.648 512.272S233.904 7.936 512 7.936s504.352 226.24 504.352 504.336S790.112 1016.64 512 1016.64z m0-936.656c-238.368 0-432.304 193.92-432.304 432.288 0 238.384 193.936 432.32 432.304 432.32 238.368 0 432.304-193.92 432.304-432.32C944.32 273.904 750.368 79.984 512 79.984z" fill="#2c2c2c" p-id="12605"></path><path d="M752.144 552.72c0-100.288-76.736-181.824-171.92-181.824h-196.64l45.008-48a28.912 28.912 0 0 0 0-39.408c-10.336-10.912-26.944-10.912-36.896 0l-91.12 96.384a28.16 28.16 0 0 0-7.744 21.072c-0.368 7.408 2.208 15.2 7.744 20.672l91.12 96c10.336 10.928 26.944 10.928 36.896 0a28.416 28.416 0 0 0 0-39.008l-44.64-47.216h196.272c63.456 0 114.736 54.24 114.736 121.36 0 67.088-51.28 121.344-114.736 121.344H379.52c-15.856 0-28.416 13.664-28.416 30.048v0.368c0 16.816 12.928 30.064 28.416 30.064h201.04c94.848-0.032 171.584-81.184 171.584-181.856z" fill="#2c2c2c" p-id="12606"></path></svg>