<?xml version="1.0" standalone="no"?><!DOCTYPE svg PUBLIC "-//W3C//DTD SVG 1.1//EN" "http://www.w3.org/Graphics/SVG/1.1/DTD/svg11.dtd"><svg t="1534322979961" class="icon" style="" viewBox="0 0 1024 1024" version="1.1" xmlns="http://www.w3.org/2000/svg" p-id="20844" xmlns:xlink="http://www.w3.org/1999/xlink" width="200" height="200"><defs><style type="text/css"></style></defs><path d="M455.728 514.946h87.148l26.074-163.311h-87.825z" p-id="20845"></path><path d="M936.153 57.705h-848.305c-19.505 0-35.357 15.889-35.357 35.45s15.857 35.45 35.357 35.45h25.763v796.935c0 31.617 46.193 51.177 74.97 34.879l285.815-161.607c23.127-13.166 52.084-13.166 75.211 0l285.81 161.607c28.782 16.299 74.013-3.206 74.013-34.879v-796.935h26.72c19.505 0 35.357-15.889 35.357-35.45s-15.852-35.45-35.35-35.45zM691.777 351.635h-59.69l-25.395 163.306h67.941l-8.937 56.272h-67.923l-17.155 107.039h-63.823l17.169-107.039h-87.148l-17.15 107.039h-63.814l17.155-107.039h-59.69l8.916-56.272h59.696l26.074-163.306h-68.619l8.916-56.267h68.612l17.15-107.044h63.132l-17.155 107.044h87.825l17.155-107.044h63.126l-17.15 107.044h59.684l-8.905 56.267z" p-id="20846"></path></svg>