<?xml version="1.0" standalone="no"?><!DOCTYPE svg PUBLIC "-//W3C//DTD SVG 1.1//EN" "http://www.w3.org/Graphics/SVG/1.1/DTD/svg11.dtd"><svg t="1534486814043" class="icon" style="" viewBox="0 0 1024 1024" version="1.1" xmlns="http://www.w3.org/2000/svg" p-id="2166" xmlns:xlink="http://www.w3.org/1999/xlink" width="200" height="200"><defs><style type="text/css"></style></defs><path d="M346.396 310.84c18.376 0 33.224-14.847 33.224-33.222V144.612c0-18.376-14.905-33.224-33.224-33.224-18.375 0-33.223 14.848-33.223 33.224V277.56c0 18.432 14.848 33.28 33.223 33.28z m166.173 0c18.375 0 33.223-14.847 33.223-33.222V144.612c0-18.376-14.848-33.224-33.223-33.224s-33.223 14.905-33.223 33.224V277.56c0 18.432 14.905 33.28 33.223 33.28z m-99.67-135.736h33.224v66.446H412.9v-66.446z m166.23 0h33.223v66.446h-33.223v-66.446zM911.36 811.122V271.246c0.114-55.125-44.658-99.726-99.67-99.726h-66.446v66.446h66.447c18.318 0 33.337 14.905 33.337 33.223v539.933c0 18.318-15.02 33.28-33.337 33.28H213.447c-18.261 0-33.223-14.962-33.223-33.28h-0.512l0.512-539.876c0-18.318 14.905-33.223 33.223-33.223h66.446V171.52h-66.446c-55.011 0-99.67 44.6-99.67 99.726v539.876c0 55.239 44.659 99.726 99.67 99.726h598.244c53.418 0 96.654-41.927 99.27-94.777 0.058-0.284 0.399-0.626 0.399-0.91v-2.958c0-0.399 0.114-0.74 0.114-1.138h-0.114zM678.798 310.84c18.318 0 33.223-14.848 33.223-33.223V144.612c0-18.376-14.905-33.224-33.223-33.224s-33.223 14.848-33.223 33.224V277.56c0 18.432 14.734 33.28 33.223 33.28zM312.604 444.302h398.848c18.205 0 33.224-14.905 33.224-33.223 0-18.375-15.02-33.223-33.224-33.223H312.604c-18.375 0-33.223 14.848-33.223 33.223 0 18.318 14.848 33.223 33.223 33.223z m398.848 97.565H312.604c-18.375 0-33.223 14.905-33.223 33.223s14.848 33.223 33.223 33.223h398.848c18.205 0 33.224-14.905 33.224-33.223s-15.02-33.223-33.224-33.223z m0 170.439H312.604c-18.375 0-33.223 14.905-33.223 33.11 0 18.374 14.848 33.336 33.223 33.336h398.848c18.205 0 33.224-14.962 33.224-33.337 0-18.261-15.02-33.11-33.224-33.11z" p-id="2167"></path></svg>