<?xml version="1.0" standalone="no"?><!DOCTYPE svg PUBLIC "-//W3C//DTD SVG 1.1//EN" "http://www.w3.org/Graphics/SVG/1.1/DTD/svg11.dtd"><svg t="1534314827455" class="icon" style="" viewBox="0 0 1024 1024" version="1.1" xmlns="http://www.w3.org/2000/svg" p-id="13483" xmlns:xlink="http://www.w3.org/1999/xlink" width="200" height="200"><defs><style type="text/css"></style></defs><path d="M984.177778 320.853333C879.502222 71.68 592.782222-45.511111 344.746667 60.302222c-56.888889 23.893333-108.088889 58.026667-152.462223 100.124445-30.72 29.582222-73.955556 79.644444-94.435555 113.777777-10.24 15.928889-5.688889 36.408889 10.24 46.648889 6.826667 4.551111 15.928889 6.826667 25.031111 4.551111 7.964444-2.275556 15.928889-6.826667 20.48-14.791111 17.066667-28.444444 56.888889-73.955556 84.195556-100.124444 38.684444-37.546667 84.195556-67.128889 133.12-87.608889 215.04-92.16 463.075556 9.102222 555.235555 225.28 43.235556 101.262222 44.373333 215.04 4.551111 318.577778C889.742222 773.688889 807.822222 859.022222 702.008889 903.395556 497.208889 989.866667 249.173333 884.053333 151.324444 671.288889l113.777778 46.648889c7.964444 3.413333 17.066667 3.413333 25.031111 0 7.964444-3.413333 14.791111-10.24 17.066667-18.204445 6.826667-17.066667-1.137778-35.271111-18.204444-43.235555L81.92 571.164444c-7.964444-3.413333-18.204444-3.413333-26.168889 1.137778-7.964444 3.413333-14.791111 11.377778-17.066667 19.342222 0 1.137778-1.137778 3.413333-1.137777 4.551112L5.688889 806.684444c-2.275556 18.204444 10.24 34.133333 27.306667 37.546667 18.204444 2.275556 34.133333-10.24 37.546666-27.306667l18.204445-124.017777c84.195556 193.422222 268.515556 310.613333 457.386666 310.613333 61.44 0 121.742222-12.515556 178.631111-36.408889C847.644444 914.773333 942.08 815.786667 989.866667 691.768889c46.648889-120.604444 44.373333-252.586667-5.688889-370.915556z" fill="" p-id="13484"></path><path d="M474.453333 262.826667c-18.204444 0-22.755556 14.791111-34.133333 32.995555v279.893334c0 19.342222 19.342222 26.168889 38.684444 26.168888h269.653334c18.204444 0 31.857778-15.928889 31.857778-34.133333s-13.653333-34.133333-31.857778-34.133333H508.586667V295.822222c0-18.204444-15.928889-32.995556-34.133334-32.995555z" fill="" p-id="13485"></path></svg>