<?xml version="1.0" standalone="no"?><!DOCTYPE svg PUBLIC "-//W3C//DTD SVG 1.1//EN" "http://www.w3.org/Graphics/SVG/1.1/DTD/svg11.dtd"><svg t="1531385608287" class="icon" style="" viewBox="0 0 1026 1024" version="1.1" xmlns="http://www.w3.org/2000/svg" p-id="5035" xmlns:xlink="http://www.w3.org/1999/xlink" width="128.25" height="128"><defs><style type="text/css"></style></defs><path d="M1019.957118 59.064242a63.5872 63.5872 0 0 0-6.994592-21.619648L1009.147294 32.357618a67.402432 67.402432 0 0 0-12.71744-14.625056 72.489408 72.489408 0 0 0-26.706624-17.168544h-5.722848a75.668768 75.668768 0 0 0-18.440288 0h-7.630464a75.032896 75.032896 0 0 0-22.25552 6.35872L39.442496 465.386449a63.5872 63.5872 0 0 0 0 117.63632l132.261376 70.581792a73.761152 73.761152 0 0 0 97.288415-25.43488 63.5872 63.5872 0 0 0-27.342496-91.565568l-20.983776-11.445696 445.110399-233.365023L375.182911 636.436017a63.5872 63.5872 0 0 0-15.8968 41.967552v274.060831a71.217664 71.217664 0 0 0 143.0712 0v-159.603871l281.055423 155.152767a75.032896 75.032896 0 0 0 66.76656 0 68.038304 68.038304 0 0 0 40.059936-50.86976L1019.957118 76.868658a63.5872 63.5872 0 0 0 0-12.71744V59.064242z m-254.3488 722.350591l-225.098687-127.1744 300.131583-353.544831z" fill="" p-id="5036"></path></svg>