<?xml version="1.0" standalone="no"?><!DOCTYPE svg PUBLIC "-//W3C//DTD SVG 1.1//EN" "http://www.w3.org/Graphics/SVG/1.1/DTD/svg11.dtd"><svg t="1533808327224" class="icon" style="" viewBox="0 0 1024 1024" version="1.1" xmlns="http://www.w3.org/2000/svg" p-id="1102" xmlns:xlink="http://www.w3.org/1999/xlink" width="200" height="200"><defs><style type="text/css"></style></defs><path d="M511.913993 385.999664c-75.170166 0-135.891147 60.720981-135.891147 135.891147s60.720981 135.891147 135.891147 135.891148 135.891147-60.720981 135.891147-135.891148c-0.172014-75.170166-60.720981-135.891147-135.891147-135.891147z m0 362.261717C387.031749 748.261381 285.543423 646.773056 285.543423 521.890811s101.488325-226.370569 226.37057-226.370569 226.370569 101.488325 226.370569 226.370569c0 125.054258-101.488325 226.370569-226.370569 226.37057z m0-565.926424C285.543423 182.334957 92.199563 323.0425 13.761129 521.890811 92.199563 720.739123 285.543423 861.446666 511.913993 861.446666s419.71443-140.879557 497.98085-339.555855C931.628423 323.0425 738.284562 182.334957 511.913993 182.334957z" p-id="1103"></path></svg>