<?xml version="1.0" standalone="no"?><!DOCTYPE svg PUBLIC "-//W3C//DTD SVG 1.1//EN" "http://www.w3.org/Graphics/SVG/1.1/DTD/svg11.dtd"><svg t="1531728523764" class="icon" style="" viewBox="0 0 1024 1024" version="1.1" xmlns="http://www.w3.org/2000/svg" p-id="8233" xmlns:xlink="http://www.w3.org/1999/xlink" width="200" height="200"><defs><style type="text/css"></style></defs><path d="M75.20597333333336 75.08195555555557v873.8133333333334h873.8133333333334v-873.8133333333334h-873.8133333333334z m790.1866666666666 790.1866666666666H158.8337777777778V158.70975999999996h706.5588622222223V865.2686222222222z" p-id="8234"></path><path d="M512.0989866666666 731.2520533333334c120.92188444444444 0 219.27708444444443-98.3552 219.27708444444443-219.27708444444443 0-120.89457777777777-98.3552-219.24977777777775-219.27708444444443-219.24977777777775-120.89457777777777 0-219.24977777777775 98.3552-219.24977777777775 219.24977777777775 0.001137777777777778 120.92188444444444 98.3552 219.27708444444443 219.24977777777775 219.27708444444443z m0-382.7746133333333c90.16092444444443 0 163.52483555555557 73.33774222222222 163.52483555555557 163.49752888888892s-73.36391111111111 163.52483555555557-163.52483555555557 163.52483555555557-163.49752888888892-73.36504888888888-163.49752888888892-163.52483555555557 73.33774222222222-163.49752888888892 163.49752888888892-163.49752888888892z" p-id="8235"></path></svg>