<?xml version="1.0" standalone="no"?><!DOCTYPE svg PUBLIC "-//W3C//DTD SVG 1.1//EN" "http://www.w3.org/Graphics/SVG/1.1/DTD/svg11.dtd"><svg t="1534323100626" class="icon" style="" viewBox="0 0 1024 1024" version="1.1" xmlns="http://www.w3.org/2000/svg" p-id="22074" xmlns:xlink="http://www.w3.org/1999/xlink" width="200" height="200"><defs><style type="text/css"></style></defs><path d="M887.629 0.016H136.338C61.061 0.016 0 61.045 0 136.354v751.26c0 75.311 61.061 136.371 136.338 136.371h751.291c75.311 0 136.371-61.061 136.371-136.371v-751.26C1024 61.045 962.939 0.016 887.629 0.016zM210.836 385.129c49.563-117.373 165.934-199.994 301.18-199.994 89.184 0 170.057 35.967 229.148 94.059l22.156-33.311c5.563-8.344 15.967-12.094 25.623-9.188 9.594 2.969 16.188 11.906 16.125 21.938l-0.844 177.088c-0.031 7.656-3.969 14.844-10.469 19.061-6.438 4.125-14.625 4.719-21.654 1.625l-160.715-72.309c-9.188-4.156-14.563-13.875-13.188-23.844 1.313-10 9.094-17.906 19.063-19.5l29.248-4.5c-37.311-28.873-83.809-46.186-134.494-46.186-92.029 0-170.996 56.311-204.525 136.277-8.156 19.438-27.094 32.029-48.123 32.029-17.688 0-34.156-8.873-43.938-23.592-9.749-14.717-11.468-33.374-4.593-49.653z m602.326 253.742C763.57 756.305 647.26 838.895 512.016 838.895c-89.248 0-170.152-35.873-229.182-94.059l-22.154 33.279c-5.531 8.375-16 12.125-25.594 9.219-9.656-2.938-16.219-11.875-16.156-21.967l0.844-177.027c0-7.717 3.938-14.873 10.438-19.092a23.019 23.019 0 0 1 21.719-1.563l160.65 72.279c9.219 4.125 14.625 13.842 13.25 23.842a22.74 22.74 0 0 1-19.125 19.438l-29.154 4.563c37.248 28.811 83.715 46.186 134.465 46.186 92.027 0 170.932-56.373 204.523-136.371 8.094-19.373 27.094-31.998 48.094-31.998 17.686 0 34.186 8.938 43.936 23.623 9.748 14.749 11.467 33.374 4.592 49.624z" p-id="22075"></path></svg>