<?xml version="1.0" standalone="no"?><!DOCTYPE svg PUBLIC "-//W3C//DTD SVG 1.1//EN" "http://www.w3.org/Graphics/SVG/1.1/DTD/svg11.dtd"><svg t="1534314955732" class="icon" style="" viewBox="0 0 1024 1024" version="1.1" xmlns="http://www.w3.org/2000/svg" p-id="15530" xmlns:xlink="http://www.w3.org/1999/xlink" width="200" height="200"><defs><style type="text/css"></style></defs><path d="M421.269614 45.308749c-238.750706 0-378.602446 59.379116-378.602446 132.705174v79.584572c0 73.392286 139.707244 132.909878 378.602446 132.909878 239.039699 0 405.695579-59.517592 405.695579-132.909878V178.016933c0.00301-73.458514-166.65588-132.708184-405.695579-132.708184z m-33.47507 688.77667c-171.869802-6.126058-272.252869-43.186453-324.897837-93.05588-13.676011 12.917404-20.211477 26.253246-20.211477 40.266416v107.361053c0 74.024459 146.242709 134.020696 396.604328 134.020697 25.009972 0 49.399812-0.69238 73.362182-1.935654a293.337347 293.337347 0 0 1-124.857196-186.656632z m62.244967-268.45381h-15.987959c-201.103293 0-314.406773-39.727563-371.446848-94.579116-13.399059 12.920414-19.931515 26.521167-19.931515 40.555409v108.182879c0 68.470367 123.439323 125.275635 336.845908 133.734713 0.210724-69.01825 25.280903-135.679398 70.520414-187.893885z m518.378927 434.555785s-173.128128-159.434055-141.880715-134.005644c-18.053057 28.044403-66.001881 44.426717-93.913828 62.627281-37.222954-35.817121 164.780433 142.362371 164.780432 142.362371 19.880339 17.791157 50.305927 16.933208 69.195861-1.935654 18.901976-18.886924 19.723801-49.189087 1.81825-69.048354z" p-id="15531"></path><path d="M883.084102 784.764628l-0.264911-0.144496c46.822954-72.344685 50.281844-164.557667 9.157479-240.25588-41.000941-75.689182-120.203198-123.053998-206.392474-123.321919-127.262465 3.886359-228.331891 108.182879-228.331891 235.391157 0 127.202258 101.066416 231.363311 228.331891 235.270743 47.301599 0 91.213547-14.031232 128.17159-38.062841l0.285983 0.282973c27.50254-18.034995 50.838758-41.380245 69.042333-69.159737z m-197.496896 44.456821c-95.509313 0-172.899341-77.338852-172.899341-172.763876 0-95.400941 77.390028-172.763876 172.899341-172.763876 95.244403 0 172.772907 77.615804 172.772907 172.763876-0.00301 95.262465-77.531515 172.763876-172.772907 172.763876z" p-id="15532"></path></svg>