<?xml version="1.0" standalone="no"?><!DOCTYPE svg PUBLIC "-//W3C//DTD SVG 1.1//EN" "http://www.w3.org/Graphics/SVG/1.1/DTD/svg11.dtd"><svg t="1534735770225" class="icon" style="" viewBox="0 0 1024 1024" version="1.1" xmlns="http://www.w3.org/2000/svg" p-id="1556" xmlns:xlink="http://www.w3.org/1999/xlink" width="200" height="200"><defs><style type="text/css"></style></defs><path d="M814.1419 88.87312 215.452515 88.87312c-48.375777 0-87.60729 39.248909-87.60729 87.589894l0 113.184829 17.523095 0c19.285229 0 35.042097 17.219173 35.042097 36.505425 0 19.250436-15.756869 36.505425-35.042097 36.505425L127.845225 362.658693l0 109.513206 17.523095 0c19.285229 0 35.042097 17.219173 35.042097 36.504402 0 19.25146-15.756869 36.504402-35.042097 36.504402L127.845225 545.180703l0 109.514229 17.523095 0c19.285229 0 35.042097 17.21815 35.042097 36.505425 0 19.464307-15.756869 36.502355-35.042097 36.502355L127.845225 727.702714 127.845225 840.853773c0 48.375777 39.231513 87.62571 87.60729 87.62571l598.689385 0c48.359404 0 80.300884-39.248909 80.300884-87.62571L894.442784 176.463014C894.44176 128.123053 862.500281 88.87312 814.1419 88.87312zM696.732863 783.958972c-42.049698 24.347524-157.336398-40.497343-246.88797-196.069561-89.548502-155.609057-87.98182-288.259216-45.737694-312.607764 36.433794-21.033036 84.98558-62.029752 120.029724 17.682731 35.042097 79.888492 4.384867 91.296309-33.296337 113.006773-26.273387 15.257495 2.994194 79.602989 36.112476 137.213082 33.117258 57.643861 74.095555 115.288746 100.387361 100.069113 37.681204-21.89159 62.884213-42.921555 114.255207 27.481911C792.932856 741.215472 733.166657 762.746858 696.732863 783.958972z" p-id="1557"></path></svg>