<?xml version="1.0" standalone="no"?><!DOCTYPE svg PUBLIC "-//W3C//DTD SVG 1.1//EN" "http://www.w3.org/Graphics/SVG/1.1/DTD/svg11.dtd"><svg t="1534734790571" class="icon" style="" viewBox="0 0 1024 1024" version="1.1" xmlns="http://www.w3.org/2000/svg" p-id="2026" xmlns:xlink="http://www.w3.org/1999/xlink" width="200" height="200"><defs><style type="text/css"></style></defs><path d="M512 403.2c70.4 0 128-57.6 128-128s-57.6-128-128-128-128 57.6-128 128 57.6 128 128 128z m0-208c44.8 0 80 35.2 80 80s-35.2 80-80 80-80-35.2-80-80 35.2-80 80-80zM774.4 542.4c17.6 1.6 33.6 4.8 48 11.2-3.2-107.2-60.8-201.6-147.2-254.4-1.6 17.6-8 33.6-14.4 48 64 43.2 107.2 113.6 113.6 195.2zM361.6 347.2c-6.4-14.4-11.2-30.4-14.4-48-86.4 52.8-144 147.2-147.2 254.4 16-6.4 32-9.6 48-11.2 8-81.6 51.2-152 113.6-195.2zM624 801.6c-33.6 16-72 25.6-112 25.6s-78.4-9.6-112-25.6c-9.6 14.4-20.8 25.6-35.2 36.8 43.2 24 94.4 36.8 147.2 36.8s104-12.8 147.2-36.8c-12.8-9.6-25.6-22.4-35.2-36.8zM262.4 579.2c-70.4 0-128 57.6-128 128s57.6 128 128 128 128-57.6 128-128-57.6-128-128-128z m0 208c-44.8 0-80-35.2-80-80s35.2-80 80-80 80 35.2 80 80-35.2 80-80 80zM761.6 579.2c-70.4 0-128 57.6-128 128s57.6 128 128 128 128-57.6 128-128-57.6-128-128-128z m0 208c-44.8 0-80-35.2-80-80s35.2-80 80-80 80 35.2 80 80-36.8 80-80 80z" p-id="2027"></path></svg>