<?xml version="1.0" standalone="no"?><!DOCTYPE svg PUBLIC "-//W3C//DTD SVG 1.1//EN" "http://www.w3.org/Graphics/SVG/1.1/DTD/svg11.dtd"><svg t="1534735877888" class="icon" style="" viewBox="0 0 1024 1024" version="1.1" xmlns="http://www.w3.org/2000/svg" p-id="1678" xmlns:xlink="http://www.w3.org/1999/xlink" width="200" height="200"><defs><style type="text/css"></style></defs><path d="M940.839487 382.650003l0 157.286256 33.109072 33.119305-69.040423 71.848375-69.891813-69.729108 47.863101-43.517119 0-124.178207c-203.082278 83.734076-268.183995 109.759823-313.222771 130.078591s-77.469396 20.215414-122.140805 3.38305-257.320577-94.439906-362.909403-144.974859c-70.456678-33.716916-74.992995-55.094806 1.213641-83.708494 99.45206-37.783535 263.828804-98.290607 350.966397-131.313721 51.577702-20.86726 78.849836-32.256658 126.192074-8.461719 84.539418 34.905998 277.70279 107.388822 373.752356 147.047054C1020.344239 356.022553 964.134029 368.023888 940.839487 382.650003zM579.450716 599.818091c49.109488-20.263509 115.329678-53.768601 187.534164-84.703147l0 248.354368c0 0-93.380784 99.338473-257.539564 99.338473-176.788425 0-272.279267-99.338473-272.279267-99.338473L237.166049 531.657712c55.725162 22.704095 118.3075 42.23901 194.037275 68.160379C477.878366 616.426351 537.106306 622.167099 579.450716 599.818091z" p-id="1679"></path></svg>