<?xml version="1.0" standalone="no"?><!DOCTYPE svg PUBLIC "-//W3C//DTD SVG 1.1//EN" "http://www.w3.org/Graphics/SVG/1.1/DTD/svg11.dtd"><svg t="1534735919041" class="icon" style="" viewBox="0 0 1024 1024" version="1.1" xmlns="http://www.w3.org/2000/svg" p-id="1800" xmlns:xlink="http://www.w3.org/1999/xlink" width="200" height="200"><defs><style type="text/css"></style></defs><path d="M921.61361 245.443062l-25.016767-21.991874 21.332864-24.459065c14.994506-13.036921 16.606213-35.58445 3.593851-50.382481l-37.700647-42.8489c-13.015432-14.806217-35.716456-16.22759-50.721195-3.204995L531.651061 336.146876c-105.405655-49.13507-234.720859-34.463929-328.406588 47.854914C76.678892 495.212662 63.095525 687.739537 172.897304 814.020638c109.802802 126.265752 301.420981 138.491191 427.982468 27.282367 105.98587-93.131097 132.725884-243.282862 74.139557-363.804796l48.861848-56.022944 30.205952 26.915c10.815323 9.641591 27.861558 7.725962 38.071084-4.254907l29.588899-34.727942c10.210549-11.988032 9.717316-29.521361-1.099031-39.153742l-29.310559-26.120914 37.671994-43.191708 26.982538 23.721261c10.882861 9.56689 27.867698 7.477298 37.931914-4.676509l29.167297-35.214013C933.16469 272.626167 932.504658 255.009951 921.61361 245.443062zM410.120147 755.12732c-44.517913 39.179324-111.905696 34.898835-150.505829-9.550517-38.59297-44.435025-33.792641-112.219851 10.731412-151.381779 44.526099-39.163975 111.904673-34.883485 150.498666 9.550517C459.444529 648.179542 454.644199 715.963345 410.120147 755.12732z" p-id="1801"></path></svg>